<?xml version="1.0" standalone="no"?>
<!DOCTYPE svg PUBLIC "-//W3C//DTD SVG 20010904//EN"
 "http://www.w3.org/TR/2001/REC-SVG-20010904/DTD/svg10.dtd">
<svg version="1.0" xmlns="http://www.w3.org/2000/svg"
 width="500.000000pt" height="500.000000pt" viewBox="0 0 500.000000 500.000000"
 preserveAspectRatio="xMidYMid meet">

<g transform="translate(0.000000,500.000000) scale(0.100000,-0.100000)"
fill="#000000" stroke="none">
<path d="M2220 4975 c-7 -14 -20 -25 -27 -25 -7 0 -16 -8 -20 -17 -3 -10 -14
-36 -23 -58 -31 -69 -45 -182 -44 -347 1 -140 0 -158 -16 -163 -53 -17 -53
-134 -1 -240 28 -57 39 -69 76 -85 54 -23 63 -39 77 -139 10 -74 9 -86 -16
-181 -15 -56 -24 -110 -21 -120 3 -11 20 -31 38 -46 18 -14 57 -50 87 -78 64
-61 153 -122 193 -132 15 -3 27 -11 27 -16 0 -11 -41 -7 -72 7 -14 5 -18 2
-18 -14 0 -12 -6 -21 -13 -21 -7 0 -23 -23 -35 -50 -23 -53 -28 -80 -13 -80
20 0 72 -111 73 -155 0 -29 6 -46 15 -50 10 -3 13 -13 10 -28 -5 -18 -2 -17
21 11 15 18 35 32 45 32 13 0 17 8 17 35 0 19 5 35 11 35 5 0 7 5 4 10 -3 6
-1 10 5 10 6 0 9 4 5 10 -3 5 -11 7 -19 4 -7 -3 -13 2 -13 11 0 8 7 14 16 13
9 -2 16 4 15 12 0 24 -22 80 -31 80 -5 0 -13 13 -19 28 -11 28 1 52 25 52 17
0 24 22 10 31 -10 6 -6 9 14 9 45 0 89 27 122 73 39 54 40 58 18 51 -15 -6
-16 -4 -5 7 14 15 17 43 3 35 -12 -8 -34 21 -28 37 3 8 28 17 59 20 30 4 68
14 86 22 41 21 90 78 114 134 11 25 25 53 32 61 16 19 76 164 75 182 0 7 -4 4
-9 -7 -5 -11 -9 -15 -9 -9 -1 6 -13 12 -28 12 -15 0 -29 5 -31 11 -2 6 -10 18
-18 25 -8 8 -14 18 -14 23 0 4 -8 18 -18 30 -13 17 -21 20 -32 12 -13 -8 -12
-12 8 -26 13 -9 22 -26 22 -41 0 -13 9 -39 20 -57 23 -37 18 -62 -13 -67 -17
-2 -21 -9 -19 -27 3 -20 1 -22 -15 -15 -10 4 -36 9 -58 10 -63 3 -65 3 -65 14
0 6 11 10 25 10 17 0 24 5 23 18 -3 43 2 52 30 52 32 0 52 16 52 42 0 19 -21
23 -48 9 -11 -6 -23 -5 -32 2 -18 14 -42 65 -35 76 2 5 -3 32 -11 62 -12 41
-13 61 -5 82 13 35 33 35 48 0 13 -28 47 -45 125 -62 44 -10 70 1 42 18 -18
10 -18 10 4 11 12 0 22 4 22 8 0 5 11 15 25 22 32 17 32 30 1 30 -13 0 -27 7
-30 16 -9 23 -8 27 7 22 6 -3 20 3 30 12 29 28 -1 44 -66 37 -66 -8 -95 -1
-103 27 -13 42 -58 77 -47 36 6 -22 -21 -29 -31 -7 -5 10 -7 10 -12 0 -9 -20
-24 -15 -24 8 0 16 4 19 20 14 15 -5 20 -2 20 13 0 10 -9 27 -20 37 -19 17
-29 41 -12 32 4 -3 12 1 19 8 10 10 9 16 -3 26 -8 7 -12 20 -9 30 5 13 1 19
-10 19 -12 0 -15 5 -9 22 12 39 38 52 96 48 15 -1 55 11 88 26 34 15 74 27 90
27 34 0 31 17 -10 62 -16 17 -30 39 -32 49 -1 11 -10 20 -19 21 -20 3 -139 78
-139 87 0 11 18 10 25 -2 8 -12 25 -13 25 -2 0 12 -79 47 -87 39 -3 -4 -1 -7
5 -7 7 0 12 -6 12 -14 0 -9 -8 -12 -25 -8 -26 5 -45 22 -25 22 7 0 10 7 6 15
-4 10 1 15 14 15 26 0 25 12 -3 38 -17 16 -36 22 -71 22 -29 0 -45 -4 -41 -10
3 -5 -1 -10 -9 -10 -8 0 -18 5 -21 10 -4 6 -88 10 -219 10 l-213 0 -13 -25z
m550 -45 c13 -8 13 -10 -2 -10 -9 0 -20 5 -23 10 -8 13 5 13 25 0z m-137 -580
c8 0 8 -3 0 -11 -13 -13 -43 -5 -43 12 0 6 7 8 16 5 9 -3 21 -6 27 -6z m127
-16 c0 -14 -3 -14 -15 -4 -8 7 -15 14 -15 16 0 2 7 4 15 4 8 0 15 -7 15 -16z
m-87 -249 c4 -24 -23 -74 -45 -83 -5 -2 -6 -8 -2 -13 3 -5 -2 -9 -11 -9 -9 0
-14 -4 -10 -9 9 -15 -32 -23 -55 -11 -11 6 -20 20 -20 30 0 11 -8 25 -18 31
-41 26 -4 74 63 82 80 10 92 8 98 -18z m90 -112 c-7 -2 -19 -2 -25 0 -7 3 -2
5 12 5 14 0 19 -2 13 -5z m107 -333 c0 -5 -4 -10 -10 -10 -5 0 -10 5 -10 10 0
6 5 10 10 10 6 0 10 -4 10 -10z m-325 -539 c3 -5 1 -12 -5 -16 -5 -3 -10 1
-10 9 0 18 6 21 15 7z m-21 -75 c-6 -16 -24 -23 -24 -8 0 10 22 33 27 28 2 -2
1 -11 -3 -20z"/>
<path d="M2920 4995 c0 -2 10 -13 22 -25 12 -11 18 -20 13 -20 -5 0 -17 7 -27
17 -23 21 -36 10 -14 -12 9 -9 19 -33 22 -54 3 -20 19 -52 35 -70 26 -30 29
-31 29 -12 0 24 4 25 31 11 10 -6 19 -19 19 -29 0 -10 6 -24 14 -30 11 -9 10
1 -5 38 -20 54 -25 121 -9 121 6 0 5 10 -2 25 -12 27 -28 33 -28 12 0 -22 -28
-15 -39 10 -7 15 -19 23 -36 23 -14 0 -25 -2 -25 -5z"/>
<path d="M3081 4634 c0 -11 3 -14 6 -6 3 7 2 16 -1 19 -3 4 -6 -2 -5 -13z"/>
<path d="M3090 4600 c0 -13 18 -22 24 -11 3 5 -1 11 -9 15 -8 3 -15 1 -15 -4z"/>
<path d="M3130 4421 c0 -16 6 -31 14 -34 11 -4 14 1 11 21 -2 15 -4 30 -4 35
-1 4 -5 7 -11 7 -5 0 -10 -13 -10 -29z"/>
<path d="M2955 4340 c3 -5 10 -10 16 -10 5 0 9 5 9 10 0 6 -7 10 -16 10 -8 0
-12 -4 -9 -10z"/>
<path d="M3140 4306 c0 -19 3 -37 8 -40 4 -2 6 13 4 35 -5 48 -12 51 -12 5z"/>
<path d="M3281 4124 c0 -11 3 -14 6 -6 3 7 2 16 -1 19 -3 4 -6 -2 -5 -13z"/>
<path d="M3450 3779 c0 -8 7 -24 15 -35 11 -14 14 -15 14 -4 0 8 -6 24 -14 34
-11 15 -15 16 -15 5z"/>
<path d="M3494 3727 c3 -10 6 -24 6 -30 0 -8 4 -7 12 1 10 10 8 16 -6 30 -18
16 -19 16 -12 -1z"/>
<path d="M2667 3314 c-4 -4 2 -19 12 -33 10 -14 21 -33 24 -41 11 -30 8 16 -4
49 -11 30 -19 37 -32 25z"/>
<path d="M3667 3264 c-3 -18 2 -23 26 -28 39 -8 50 1 32 26 -20 30 -52 31 -58
2z"/>
<path d="M3685 3160 c-4 -6 -15 -8 -26 -5 -12 4 -19 1 -20 -7 -2 -25 3 -53 11
-62 5 -5 6 1 3 14 -4 17 -2 21 8 18 9 -3 13 -16 11 -38 -2 -21 0 -30 7 -25 12
7 13 -16 2 -55 -4 -14 -4 -44 -1 -68 4 -23 3 -45 -2 -48 -4 -3 -8 -10 -8 -15
0 -6 4 -7 10 -4 6 4 9 -63 8 -182 -1 -103 2 -234 5 -290 5 -76 3 -113 -7 -143
-7 -22 -9 -37 -4 -34 6 4 7 -27 3 -83 -5 -55 -3 -103 4 -127 8 -31 7 -53 -6
-104 -14 -57 -14 -66 -2 -76 8 -6 22 -27 31 -46 18 -39 80 -93 125 -111 15 -6
69 -12 118 -13 99 -1 129 10 162 60 13 20 14 30 5 44 -12 20 -19 58 -27 145
-13 156 -99 508 -132 543 -7 7 -17 32 -23 55 -5 23 -19 59 -30 79 -11 20 -17
44 -14 53 5 11 0 18 -13 21 -16 5 -23 19 -32 75 -6 38 -10 72 -9 76 3 15 -14
63 -22 63 -5 0 -11 -8 -14 -17 -3 -10 -4 -7 -2 8 1 14 -3 31 -11 37 -18 17
-17 42 2 42 11 0 15 11 15 36 0 31 2 35 21 29 19 -6 20 -4 13 42 -8 53 -39
102 -66 102 -10 1 -18 6 -18 11 0 13 -67 13 -75 0z m132 -352 c-3 -8 -6 -5 -6
6 -1 11 2 17 5 13 3 -3 4 -12 1 -19z"/>
<path d="M1226 2927 c3 -10 9 -15 12 -12 3 3 0 11 -7 18 -10 9 -11 8 -5 -6z"/>
<path d="M1230 2874 c0 -6 -9 -20 -21 -33 l-21 -22 -25 25 c-14 15 -31 26 -37
26 -14 -1 55 -59 69 -60 13 0 49 59 41 67 -3 4 -6 2 -6 -3z"/>
<path d="M1086 2727 c3 -10 9 -15 12 -12 3 3 0 11 -7 18 -10 9 -11 8 -5 -6z"/>
<path d="M1060 2679 c0 -5 5 -7 10 -4 6 3 10 8 10 11 0 2 -4 4 -10 4 -5 0 -10
-5 -10 -11z"/>
<path d="M2475 2240 c3 -5 8 -10 11 -10 2 0 4 5 4 10 0 6 -5 10 -11 10 -5 0
-7 -4 -4 -10z"/>
<path d="M1530 2176 c-5 -15 -10 -51 -10 -79 0 -29 -7 -106 -15 -172 -17 -137
-20 -285 -6 -285 15 0 19 27 26 175 5 117 9 144 25 167 11 15 20 33 20 40 0
10 -2 10 -8 1 -4 -6 -8 18 -9 55 -1 49 2 69 13 77 13 9 13 13 -5 29 -20 18
-21 18 -31 -8z"/>
<path d="M3111 2137 c-4 -12 -11 -46 -15 -76 -4 -29 -20 -110 -35 -180 -42
-185 -43 -193 -28 -187 6 3 30 11 52 17 34 11 44 21 67 66 28 54 21 68 -18 38
-22 -16 -43 -19 -63 -6 -12 7 -11 17 5 60 19 55 37 62 42 16 l4 -28 29 44 c34
52 37 67 8 38 -16 -16 -23 -18 -35 -8 -17 14 -19 39 -3 39 6 0 8 7 5 16 -14
38 64 128 95 109 14 -9 11 -68 -6 -91 -8 -12 -12 -24 -9 -27 3 -3 -1 -19 -10
-35 -12 -24 -20 -102 -10 -102 1 0 12 32 24 72 12 40 35 99 52 131 54 108 55
103 -16 102 -33 0 -76 3 -94 7 -28 7 -34 5 -41 -15z m15 -364 c-10 -10 -19 5
-10 18 6 11 8 11 12 0 2 -7 1 -15 -2 -18z m-28 5 c-6 -18 -25 -20 -31 -3 -5
10 0 15 14 15 12 0 19 -5 17 -12z"/>
<path d="M3166 2011 c-4 -7 -5 -15 -2 -18 9 -9 19 4 14 18 -4 11 -6 11 -12 0z"/>
<path d="M2480 1718 c1 -18 1 -158 0 -310 0 -255 -1 -277 -18 -282 -9 -3 -51
-12 -94 -20 -42 -9 -89 -21 -104 -26 -41 -16 -177 -13 -272 5 -45 9 -118 31
-163 50 -44 19 -86 35 -93 35 -7 0 -38 -15 -69 -32 -49 -29 -56 -37 -57 -64 0
-20 -15 -53 -40 -90 -61 -91 -92 -255 -126 -678 -16 -194 -16 -221 -3 -245
l15 -26 642 1 c354 1 645 4 648 7 3 2 -2 24 -10 48 -29 83 -15 127 38 113 23
-5 26 -3 26 20 0 15 6 29 14 32 11 4 9 14 -8 50 l-21 45 -85 -4 c-47 -1 -93
-6 -102 -11 -13 -6 -18 -4 -18 8 0 9 5 16 10 16 6 0 13 8 16 18 4 9 16 36 27
59 l21 42 -36 35 c-21 20 -43 36 -51 36 -20 0 -31 48 -16 66 7 8 18 13 25 10
7 -3 16 -1 19 4 4 6 -4 10 -17 11 -15 0 -18 3 -8 6 8 3 18 10 21 16 4 6 15 4
29 -6 20 -14 20 -16 3 -20 -10 -3 7 -5 37 -6 39 0 51 2 40 9 -8 5 -23 10 -32
10 -19 0 -34 18 -23 28 3 3 10 0 14 -7 7 -11 13 -10 32 8 18 16 20 24 11 33
-7 7 -12 21 -12 33 0 11 -7 29 -15 39 -20 26 -20 85 0 92 17 7 21 64 5 64 -5
0 -10 14 -10 30 0 17 5 30 10 30 16 0 12 14 -15 42 -19 20 -25 38 -25 71 0 70
-12 137 -24 137 -42 1 -88 179 -60 232 16 30 19 51 4 28 -8 -13 -11 -12 -24 5
-9 11 -16 31 -16 45 0 52 -23 190 -32 190 -4 0 -8 -15 -8 -32z m70 -438 c0
-25 -4 -30 -25 -30 -21 0 -25 5 -25 30 0 25 4 30 25 30 21 0 25 -5 25 -30z
m17 -817 c-2 -16 -4 -3 -4 27 0 30 2 43 4 28 2 -16 2 -40 0 -55z m10 -70 c-3
-10 -5 -4 -5 12 0 17 2 24 5 18 2 -7 2 -21 0 -30z m123 -73 c0 -11 -4 -20 -9
-20 -11 0 -22 26 -14 34 12 12 23 5 23 -14z m51 -19 c14 -33 15 -41 3 -45 -25
-9 -57 58 -37 77 12 13 18 7 34 -32z"/>
<path d="M1487 1616 c-4 -9 -12 -15 -18 -14 -6 2 -14 -3 -16 -10 -4 -9 3 -12
21 -10 33 5 40 13 28 33 -8 16 -10 16 -15 1z"/>
<path d="M930 1506 c0 -3 -13 -85 -30 -183 -46 -275 -58 -379 -70 -628 -10
-203 -20 -369 -37 -571 -8 -91 -2 -94 163 -94 l134 0 0 138 c0 145 15 251 65
452 14 58 41 177 60 265 20 88 38 169 41 180 2 11 18 83 35 160 17 77 33 150
36 162 5 19 0 22 -53 28 -71 8 -230 50 -291 76 -47 20 -53 22 -53 15z"/>
<path d="M2763 1323 c-16 -6 -17 -35 -1 -51 9 -9 9 -15 0 -24 -7 -7 -12 -22
-12 -35 0 -13 -4 -23 -10 -23 -5 0 -10 14 -10 30 0 17 -4 30 -8 30 -5 0 -8
-43 -8 -95 0 -52 3 -95 8 -95 4 0 8 -15 9 -32 1 -30 2 -29 10 11 11 58 19 64
19 13 0 -68 19 -91 44 -56 10 13 12 13 12 -5 0 -12 -4 -21 -8 -21 -4 0 -8 -7
-8 -16 0 -9 5 -12 12 -8 7 4 8 3 4 -5 -4 -6 -1 -18 7 -26 13 -12 14 -5 11 53
-3 47 -1 60 5 42 8 -22 9 -22 11 -5 4 39 29 -121 28 -185 l0 -65 -12 52 c-11
51 -26 80 -26 52 0 -10 -3 -11 -8 -2 -4 6 -25 14 -46 18 l-39 8 7 -64 c7 -57
25 -115 26 -81 0 6 6 12 14 12 8 0 14 -6 13 -12 -1 -32 4 -49 12 -43 5 3 13 0
16 -5 5 -8 13 -6 25 5 18 16 20 15 40 -16 11 -19 23 -44 26 -57 4 -12 10 -22
15 -22 5 0 9 -15 9 -34 0 -19 5 -38 10 -41 6 -4 9 -12 8 -18 -1 -7 3 -28 9
-47 6 -19 14 -53 17 -75 5 -33 -92 235 -98 272 -1 7 -6 16 -10 20 -4 4 -6 -16
-5 -45 2 -28 3 -52 2 -52 -1 0 -16 13 -34 30 -20 17 -37 26 -42 21 -11 -11 1
-71 13 -71 5 0 6 -24 3 -54 -3 -30 -3 -66 1 -81 6 -22 11 -26 31 -22 18 3 25
0 26 -12 0 -12 2 -11 8 3 7 18 8 18 14 -5 10 -35 8 -59 -3 -34 -5 11 -9 14 -9
7 -1 -10 -6 -10 -22 -2 -19 11 -20 10 -9 -9 8 -16 8 -21 0 -21 -7 0 -10 -6 -7
-12 2 -7 10 -12 16 -11 7 2 11 -14 11 -42 0 -25 5 -45 10 -45 6 0 10 -21 11
-47 1 -47 1 -47 10 -16 5 18 12 33 14 33 3 0 5 -30 4 -67 0 -47 -3 -62 -9 -48
-8 19 -9 19 -9 -2 -1 -28 8 -30 171 -38 l136 -7 17 25 c9 14 15 38 13 54 -2
15 3 33 11 39 14 11 24 107 10 98 -10 -6 10 57 22 70 20 22 -53 104 -83 93
-28 -10 -48 13 -48 53 0 23 -5 40 -11 40 -7 0 -10 14 -7 36 4 32 2 36 -24 41
-15 3 -26 9 -23 13 7 11 -22 33 -33 26 -5 -3 -15 7 -23 22 -19 37 -41 53 -56
40 -9 -7 -14 1 -19 29 -4 21 -11 41 -16 44 -6 4 -5 14 3 27 10 17 9 28 -9 70
-24 56 -28 82 -11 82 6 0 8 7 5 16 -3 8 -2 13 3 10 4 -3 17 1 27 9 10 8 28 15
40 15 11 0 29 9 39 20 10 11 24 20 32 20 7 0 13 5 13 10 0 6 10 20 21 31 18
18 20 29 15 67 -3 24 -6 60 -6 78 0 34 -1 34 -45 34 -42 0 -50 -6 -46 -32 0
-5 -10 -8 -24 -8 -35 0 -105 -37 -105 -55 0 -8 -6 -15 -14 -15 -8 0 -18 -5
-22 -11 -5 -8 1 -10 19 -5 32 8 39 -3 31 -43 -5 -22 -12 -31 -23 -29 -9 1 -22
-1 -28 -5 -7 -5 -13 -4 -13 2 0 5 6 11 12 13 10 4 9 10 -3 29 -16 26 -14 69 3
69 7 0 8 16 3 46 -8 59 -15 75 -26 68 -5 -3 -10 10 -10 28 l-1 33 -7 -30 -7
-30 -7 26 c-7 28 -23 39 -44 32z m264 -195 c-3 -8 -6 -5 -6 6 -1 11 2 17 5 13
3 -3 4 -12 1 -19z m12 -62 c-9 -8 -10 -7 -5 7 3 10 7 24 7 30 1 7 3 4 6 -7 3
-10 -1 -23 -8 -30z m-129 -66 c-19 -13 -30 -13 -30 0 0 6 10 10 23 10 18 0 19
-2 7 -10z m-30 -265 c0 -8 -4 -15 -10 -15 -5 0 -10 7 -10 15 0 8 5 15 10 15 6
0 10 -7 10 -15z m15 -209 c4 -19 5 -42 3 -53 -2 -10 -9 6 -14 35 -6 28 -7 52
-3 52 4 0 11 -15 14 -34z m231 4 c1 -14 -2 -32 -7 -40 -5 -8 -9 -12 -9 -9 0 4
-7 23 -15 44 -16 36 -16 36 7 33 17 -2 23 -10 24 -28z m-119 -222 c-3 -8 -6
-5 -6 6 -1 11 2 17 5 13 3 -3 4 -12 1 -19z m-90 -75 c-2 -16 -4 -5 -4 22 0 28
2 40 4 28 2 -13 2 -35 0 -50z m-20 25 c-3 -7 -5 -2 -5 12 0 14 2 19 5 13 2 -7
2 -19 0 -25z m330 -14 c-3 -3 -12 -4 -19 -1 -8 3 -5 6 6 6 11 1 17 -2 13 -5z"/>
<path d="M2553 602 c-9 -22 5 -26 46 -12 41 13 71 9 71 -11 0 -9 -3 -9 -14 0
-13 11 -46 5 -46 -9 0 -11 35 -40 48 -40 15 0 48 67 38 77 -13 14 -138 9 -143
-5z"/>
<path d="M2732 558 l-30 -63 37 -32 c20 -18 39 -32 42 -33 10 0 -7 78 -20 93
-12 15 -4 77 10 77 5 0 9 5 9 10 0 27 -22 4 -48 -52z"/>
<path d="M3193 545 c-9 -24 1 -27 15 -5 8 13 8 20 2 20 -6 0 -13 -7 -17 -15z"/>
<path d="M3227 516 c-4 -10 -1 -13 9 -9 15 6 19 23 5 23 -5 0 -11 -7 -14 -14z"/>
<path d="M3245 500 c-3 -5 3 -10 14 -10 11 0 23 -4 26 -10 3 -5 12 -10 18 -10
7 0 1 9 -13 20 -29 22 -36 24 -45 10z"/>
<path d="M2673 428 c-23 -49 -23 -55 7 -56 34 -1 48 24 18 31 -15 4 -18 11
-13 26 9 28 1 27 -12 -1z"/>
<path d="M2808 353 c7 -3 16 -2 19 1 4 3 -2 6 -13 5 -11 0 -14 -3 -6 -6z"/>
<path d="M3310 333 c0 -15 -3 -39 -6 -53 -5 -24 -5 -24 10 -6 18 22 21 71 6
81 -6 4 -10 -6 -10 -22z"/>
<path d="M2881 120 c0 -32 2 -40 9 -29 5 9 6 28 0 45 -8 27 -8 26 -9 -16z"/>
</g>
</svg>
